<mxfile host="app.diagrams.net" modified="2023-09-06T08:55:55.834Z" agent="Mozilla/5.0 (Macintosh; Intel Mac OS X 10_15_7) AppleWebKit/537.36 (KHTML, like Gecko) Chrome/116.0.0.0 Safari/537.36" etag="AuSV-OD_ppSmDoTbffKm" version="21.6.9" type="github">
  <diagram name="Page-1" id="meShLM8NuAWuV0TFAfC7">
    <mxGraphModel dx="1434" dy="765" grid="1" gridSize="10" guides="1" tooltips="1" connect="1" arrows="1" fold="1" page="1" pageScale="1" pageWidth="850" pageHeight="1100" math="0" shadow="0">
      <root>
        <mxCell id="0" />
        <mxCell id="1" parent="0" />
        <mxCell id="VF0mlqbIM0Om4mu_rDks-1" value="Code" style="rounded=1;whiteSpace=wrap;html=1;labelBackgroundColor=none;fillColor=#B2C9AB;strokeColor=#788AA3;fontColor=#46495D;" vertex="1" parent="1">
          <mxGeometry x="50" y="340" width="100" height="50" as="geometry" />
        </mxCell>
        <mxCell id="VF0mlqbIM0Om4mu_rDks-2" value="Deploy on K8s" style="rounded=1;whiteSpace=wrap;html=1;labelBackgroundColor=none;fillColor=#B2C9AB;strokeColor=#788AA3;fontColor=#46495D;" vertex="1" parent="1">
          <mxGeometry x="680" y="340" width="100" height="50" as="geometry" />
        </mxCell>
        <mxCell id="VF0mlqbIM0Om4mu_rDks-3" value="Code Scan" style="rounded=1;whiteSpace=wrap;html=1;labelBackgroundColor=none;fillColor=#ffe6cc;strokeColor=#d79b00;" vertex="1" parent="1">
          <mxGeometry x="370" y="190" width="100" height="50" as="geometry" />
        </mxCell>
        <mxCell id="VF0mlqbIM0Om4mu_rDks-4" value="Git Repo" style="rounded=1;whiteSpace=wrap;html=1;labelBackgroundColor=none;fillColor=#B2C9AB;strokeColor=#788AA3;fontColor=#46495D;" vertex="1" parent="1">
          <mxGeometry x="250" y="340" width="100" height="50" as="geometry" />
        </mxCell>
        <mxCell id="VF0mlqbIM0Om4mu_rDks-5" value="Image Repo" style="rounded=1;whiteSpace=wrap;html=1;labelBackgroundColor=none;fillColor=#B2C9AB;strokeColor=#788AA3;fontColor=#46495D;" vertex="1" parent="1">
          <mxGeometry x="450" y="340" width="100" height="50" as="geometry" />
        </mxCell>
        <mxCell id="VF0mlqbIM0Om4mu_rDks-6" value="Image Scan" style="rounded=1;whiteSpace=wrap;html=1;labelBackgroundColor=none;fillColor=#ffe6cc;strokeColor=#d79b00;" vertex="1" parent="1">
          <mxGeometry x="590" y="190" width="100" height="50" as="geometry" />
        </mxCell>
        <mxCell id="VF0mlqbIM0Om4mu_rDks-13" value="" style="endArrow=classic;html=1;rounded=0;exitX=1;exitY=0.5;exitDx=0;exitDy=0;entryX=0;entryY=0.5;entryDx=0;entryDy=0;entryPerimeter=0;labelBackgroundColor=none;strokeColor=#788AA3;fontColor=default;" edge="1" parent="1" source="VF0mlqbIM0Om4mu_rDks-1" target="VF0mlqbIM0Om4mu_rDks-4">
          <mxGeometry width="50" height="50" relative="1" as="geometry">
            <mxPoint x="400" y="430" as="sourcePoint" />
            <mxPoint x="450" y="380" as="targetPoint" />
          </mxGeometry>
        </mxCell>
        <mxCell id="VF0mlqbIM0Om4mu_rDks-14" value="" style="endArrow=classic;html=1;rounded=0;exitX=1;exitY=0.5;exitDx=0;exitDy=0;entryX=0;entryY=0.5;entryDx=0;entryDy=0;entryPerimeter=0;labelBackgroundColor=none;strokeColor=#788AA3;fontColor=default;" edge="1" parent="1">
          <mxGeometry width="50" height="50" relative="1" as="geometry">
            <mxPoint x="350" y="364.5" as="sourcePoint" />
            <mxPoint x="450" y="364.5" as="targetPoint" />
          </mxGeometry>
        </mxCell>
        <mxCell id="VF0mlqbIM0Om4mu_rDks-15" value="" style="endArrow=classic;html=1;rounded=0;exitX=1;exitY=0.5;exitDx=0;exitDy=0;entryX=0;entryY=0.5;entryDx=0;entryDy=0;labelBackgroundColor=none;strokeColor=#788AA3;fontColor=default;" edge="1" parent="1" target="VF0mlqbIM0Om4mu_rDks-2">
          <mxGeometry width="50" height="50" relative="1" as="geometry">
            <mxPoint x="550" y="364.5" as="sourcePoint" />
            <mxPoint x="650" y="365" as="targetPoint" />
          </mxGeometry>
        </mxCell>
        <mxCell id="VF0mlqbIM0Om4mu_rDks-16" value="Test" style="rounded=1;whiteSpace=wrap;html=1;labelBackgroundColor=none;fillColor=#ffe6cc;strokeColor=#d79b00;" vertex="1" parent="1">
          <mxGeometry x="830" y="190" width="100" height="50" as="geometry" />
        </mxCell>
        <mxCell id="VF0mlqbIM0Om4mu_rDks-27" value="" style="edgeStyle=orthogonalEdgeStyle;rounded=0;orthogonalLoop=1;jettySize=auto;html=1;strokeColor=#788AA3;fontColor=#46495D;fillColor=#B2C9AB;" edge="1" parent="1" source="VF0mlqbIM0Om4mu_rDks-17" target="VF0mlqbIM0Om4mu_rDks-18">
          <mxGeometry relative="1" as="geometry" />
        </mxCell>
        <mxCell id="VF0mlqbIM0Om4mu_rDks-17" value="Prod. Repo" style="rounded=1;whiteSpace=wrap;html=1;labelBackgroundColor=none;fillColor=#B2C9AB;strokeColor=#788AA3;fontColor=#46495D;" vertex="1" parent="1">
          <mxGeometry x="690" y="500" width="100" height="50" as="geometry" />
        </mxCell>
        <mxCell id="VF0mlqbIM0Om4mu_rDks-18" value="Deploy on Prod. Cluster" style="rounded=1;whiteSpace=wrap;html=1;labelBackgroundColor=none;fillColor=#B2C9AB;strokeColor=#788AA3;fontColor=#46495D;" vertex="1" parent="1">
          <mxGeometry x="690" y="610" width="100" height="50" as="geometry" />
        </mxCell>
        <mxCell id="VF0mlqbIM0Om4mu_rDks-21" value="" style="endArrow=classic;html=1;rounded=0;strokeColor=#788AA3;fontColor=#46495D;fillColor=#B2C9AB;exitX=0.68;exitY=-0.08;exitDx=0;exitDy=0;exitPerimeter=0;edgeStyle=orthogonalEdgeStyle;curved=1;" edge="1" parent="1">
          <mxGeometry width="50" height="50" relative="1" as="geometry">
            <mxPoint x="540" y="340" as="sourcePoint" />
            <mxPoint x="592" y="240" as="targetPoint" />
            <Array as="points">
              <mxPoint x="593" y="340" />
            </Array>
          </mxGeometry>
        </mxCell>
        <mxCell id="VF0mlqbIM0Om4mu_rDks-23" value="" style="endArrow=classic;html=1;rounded=0;strokeColor=#788AA3;fontColor=#46495D;fillColor=#B2C9AB;edgeStyle=orthogonalEdgeStyle;curved=1;entryX=0.57;entryY=0.04;entryDx=0;entryDy=0;entryPerimeter=0;" edge="1" parent="1">
          <mxGeometry width="50" height="50" relative="1" as="geometry">
            <mxPoint x="840" y="241" as="sourcePoint" />
            <mxPoint x="767" y="342" as="targetPoint" />
          </mxGeometry>
        </mxCell>
        <mxCell id="VF0mlqbIM0Om4mu_rDks-26" value="" style="endArrow=classic;html=1;rounded=1;strokeColor=#788AA3;fontColor=#46495D;fillColor=#B2C9AB;entryX=1;entryY=0.5;entryDx=0;entryDy=0;exitX=1;exitY=0.5;exitDx=0;exitDy=0;edgeStyle=orthogonalEdgeStyle;curved=1;" edge="1" parent="1" source="VF0mlqbIM0Om4mu_rDks-2" target="VF0mlqbIM0Om4mu_rDks-17">
          <mxGeometry width="50" height="50" relative="1" as="geometry">
            <mxPoint x="500" y="490" as="sourcePoint" />
            <mxPoint x="550" y="440" as="targetPoint" />
            <Array as="points">
              <mxPoint x="840" y="365" />
              <mxPoint x="840" y="525" />
            </Array>
          </mxGeometry>
        </mxCell>
        <mxCell id="VF0mlqbIM0Om4mu_rDks-31" value="*&lt;font color=&quot;#cc0000&quot;&gt;&lt;b&gt;SonarQube&lt;/b&gt;&lt;/font&gt;&lt;br&gt;Grype&lt;br&gt;Trivy" style="rounded=1;whiteSpace=wrap;html=1;strokeColor=#b85450;fillColor=#f8cecc;" vertex="1" parent="1">
          <mxGeometry x="410" y="230" width="110" height="60" as="geometry" />
        </mxCell>
        <mxCell id="VF0mlqbIM0Om4mu_rDks-32" value="&lt;b style=&quot;&quot;&gt;&lt;font color=&quot;#cc0000&quot;&gt;Anchor&lt;/font&gt;&lt;/b&gt;&lt;br&gt;Falco&lt;br&gt;Grype&lt;br&gt;" style="rounded=1;whiteSpace=wrap;html=1;strokeColor=#b85450;fillColor=#f8cecc;" vertex="1" parent="1">
          <mxGeometry x="650" y="230" width="80" height="70" as="geometry" />
        </mxCell>
        <mxCell id="VF0mlqbIM0Om4mu_rDks-33" value="&lt;font color=&quot;#cc0000&quot;&gt;&lt;b&gt;Selenium&lt;/b&gt;&lt;/font&gt;" style="rounded=1;whiteSpace=wrap;html=1;strokeColor=#b85450;fillColor=#f8cecc;" vertex="1" parent="1">
          <mxGeometry x="890" y="230" width="110" height="30" as="geometry" />
        </mxCell>
        <mxCell id="VF0mlqbIM0Om4mu_rDks-35" value="&lt;font style=&quot;font-size: 12px;&quot;&gt;&lt;font style=&quot;font-weight: bold;&quot; color=&quot;#cc0000&quot;&gt;Github&lt;/font&gt;&lt;br&gt;&lt;font style=&quot;&quot; color=&quot;#330000&quot;&gt;Gitlab&lt;br&gt;Bitbucket&lt;br&gt;gitra&lt;br&gt;perforce&lt;/font&gt;&lt;br&gt;&lt;br&gt;&lt;/font&gt;" style="rounded=1;whiteSpace=wrap;html=1;strokeColor=#b85450;fillColor=#f8cecc;" vertex="1" parent="1">
          <mxGeometry x="290" y="380" width="100" height="90" as="geometry" />
        </mxCell>
        <mxCell id="VF0mlqbIM0Om4mu_rDks-36" value="&lt;font style=&quot;font-weight: bold;&quot; color=&quot;#cc0000&quot;&gt;Docker Hub&lt;/font&gt;&lt;br&gt;&lt;font style=&quot;&quot; color=&quot;#330000&quot;&gt;Harbor&lt;br&gt;Azure Reg.&lt;br&gt;Github reg.&lt;/font&gt;" style="rounded=1;whiteSpace=wrap;html=1;strokeColor=#b85450;fillColor=#f8cecc;" vertex="1" parent="1">
          <mxGeometry x="490" y="380" width="110" height="80" as="geometry" />
        </mxCell>
        <mxCell id="VF0mlqbIM0Om4mu_rDks-39" value="" style="endArrow=classic;html=1;rounded=0;strokeColor=#788AA3;fontColor=#46495D;fillColor=#B2C9AB;exitX=0.68;exitY=-0.08;exitDx=0;exitDy=0;exitPerimeter=0;edgeStyle=orthogonalEdgeStyle;curved=1;" edge="1" parent="1">
          <mxGeometry width="50" height="50" relative="1" as="geometry">
            <mxPoint x="340" y="340" as="sourcePoint" />
            <mxPoint x="392" y="240" as="targetPoint" />
            <Array as="points">
              <mxPoint x="393" y="340" />
            </Array>
          </mxGeometry>
        </mxCell>
        <mxCell id="VF0mlqbIM0Om4mu_rDks-40" value="" style="endArrow=classic;html=1;rounded=0;strokeColor=#788AA3;fontColor=#46495D;fillColor=#B2C9AB;edgeStyle=orthogonalEdgeStyle;curved=1;entryX=0.57;entryY=0.04;entryDx=0;entryDy=0;entryPerimeter=0;" edge="1" parent="1">
          <mxGeometry width="50" height="50" relative="1" as="geometry">
            <mxPoint x="590" y="238" as="sourcePoint" />
            <mxPoint x="527" y="340" as="targetPoint" />
          </mxGeometry>
        </mxCell>
        <mxCell id="VF0mlqbIM0Om4mu_rDks-41" value="" style="endArrow=classic;html=1;rounded=0;strokeColor=#788AA3;fontColor=#46495D;fillColor=#B2C9AB;exitX=1;exitY=0;exitDx=0;exitDy=0;edgeStyle=orthogonalEdgeStyle;curved=1;" edge="1" parent="1" source="VF0mlqbIM0Om4mu_rDks-2">
          <mxGeometry width="50" height="50" relative="1" as="geometry">
            <mxPoint x="790" y="340" as="sourcePoint" />
            <mxPoint x="842" y="240" as="targetPoint" />
            <Array as="points">
              <mxPoint x="843" y="340" />
            </Array>
          </mxGeometry>
        </mxCell>
        <mxCell id="VF0mlqbIM0Om4mu_rDks-42" value="" style="endArrow=classic;html=1;rounded=0;strokeColor=#788AA3;fontColor=#46495D;fillColor=#B2C9AB;edgeStyle=orthogonalEdgeStyle;curved=1;entryX=0.57;entryY=0.04;entryDx=0;entryDy=0;entryPerimeter=0;" edge="1" parent="1">
          <mxGeometry width="50" height="50" relative="1" as="geometry">
            <mxPoint x="376.5" y="240" as="sourcePoint" />
            <mxPoint x="313.5" y="342" as="targetPoint" />
          </mxGeometry>
        </mxCell>
      </root>
    </mxGraphModel>
  </diagram>
</mxfile>
